:SAMPLES-PER-SECOND 30
:FULLY-SPECIFIED
:DEGREES
1160
root  -52.6186 37.8765 5.58888 -97.3465 -87.3139 85.3569
RightUpLeg  -9.80802 -17.3115 -17.5438
RightLeg  1.92545 -4.19504 1.19656
RightFoot  -0.0694928 -1.30363 13.243
RightToes  7.56698e-010 0 -3.6325e-017
Spine  32.0708 -1.75419 1.80367
Spine1  3.59691 -0.844493 -1.9097
HEad  -48.5484 -2.481 -5.70888
LeftShoulder1  1.11725 0.417162 -30.1199
LeftArm  -11.2383 16.409 -40.086
LeftForeArm  19.5406 -3.10763 -4.23603
LeftHand  -0.0769832 8.96803 -0.809515
RightShoulder  -0.195614 -4.04522 28.2197
RightArm  3.53117 -8.19088 37.1232
RightForeArm  -24.7614 11.0748 4.56899
RightHand  -0.629129 5.64741 -6.89405
LeftUpLeg  -3.28003 4.65546 3.00424
LeftLeg  36.8599 -1.6498 -0.957446
LeftFoot  -20.4497 0.04878 -0.930552
LeftToes  -2.88401e-009 5.30678e-011 -1.08654e-010
1161
root  -51.9393 38.1335 5.92564 -103.391 -87.1679 91.8303
RightUpLeg  -8.35756 -17.0615 -17.8186
RightLeg  -1.24101 -8.84649 1.45078
RightFoot  -1.81888 -1.17566 13.9009
RightToes  7.56698e-010 0 -3.6325e-017
Spine  30.7974 -1.22071 0.951721
Spine1  2.71816 -0.469821 -2.49826
HEad  -47.2537 -2.65267 -5.94896
LeftShoulder1  1.0297 0.65261 -30.0571
LeftArm  -11.1434 13.4383 -39.4509
LeftForeArm  18.1146 -7.90928 -4.6801
LeftHand  -0.0204944 8.89048 0.863959
RightShoulder  -0.110646 -3.80286 27.7029
RightArm  2.93751 -7.45511 39.158
RightForeArm  -25.0601 10.7213 4.50825
RightHand  -0.815559 6.97526 -7.99557
LeftUpLeg  -3.99814 5.33404 2.17463
LeftLeg  34.9572 -1.58319 -0.826038
LeftFoot  -18.3977 0.0902387 -0.321301
LeftToes  -2.88401e-009 5.30678e-011 -1.08654e-010
1162
root  -51.2495 38.5099 6.26358 -107.457 -87.7406 96.0231
RightUpLeg  -8.39061 -17.6313 -17.5333
RightLeg  2.23071 -9.90282 1.82424
RightFoot  -1.53757 -1.09232 12.5674
RightToes  7.56698e-010 0 -3.6325e-017
Spine  30.0065 -1.38749 1.99574
Spine1  1.65132 -0.150031 -3.76126
HEad  -45.3502 -2.85203 -5.8889
LeftShoulder1  1.13365 0.259077 -28.8381
LeftArm  -11.0515 12.3 -39.9831
LeftForeArm  15.9588 -15.0392 -4.29416
LeftHand  -0.0373459 9.00979 0.349486
RightShoulder  -0.0552863 -3.64184 27.2203
RightArm  3.60882 -6.6552 41.101
RightForeArm  -24.0581 10.7444 4.79002
RightHand  -0.785632 6.96763 -7.70208
LeftUpLeg  -4.0334 4.8573 1.91349
LeftLeg  32.1614 -0.901238 -0.259494
LeftFoot  -15.8649 0.0974801 0.0330416
LeftToes  -2.88401e-009 5.30678e-011 -1.08654e-010
1163
root  -50.6103 38.8822 6.49375 -130.022 -88.1788 118.467
RightUpLeg  -8.13744 -19.2097 -16.5724
RightLeg  7.55754 -6.55217 1.60516
RightFoot  -2.39092 -0.996215 12.4666
RightToes  7.56698e-010 0 -3.6325e-017
Spine  29.4404 -1.16366 2.51988
Spine1  0.701646 0.313546 -4.61153
HEad  -43.9587 -2.71387 -6.45742
LeftShoulder1  1.14346 0.21526 -28.6923
LeftArm  -9.48811 10.3996 -39.4109
LeftForeArm  12.7212 -22.3801 -4.28726
LeftHand  -0.0300919 8.82883 0.615552
RightShoulder  -0.00238547 -3.48376 26.5863
RightArm  5.00723 -5.2589 42.5003
RightForeArm  -21.94 11.4391 5.19569
RightHand  -0.675276 6.31424 -7.02178
LeftUpLeg  -3.44344 4.52661 2.05739
LeftLeg  29.0351 -0.124166 0.280899
LeftFoot  -13.3586 0.080302 0.0203915
LeftToes  -2.88401e-009 5.30678e-011 -1.08654e-010
1164
root  -50.0273 39.2177 6.62739 -166.322 -88.7707 154.605
RightUpLeg  -7.70229 -22.6016 -14.7192
RightLeg  14.069 -1.36546 0.421858
RightFoot  -2.98789 -0.863548 11.5118
RightToes  7.56698e-010 0 -3.6325e-017
Spine  28.7829 -1.17938 2.5945
Spine1  -0.286358 0.174088 -4.40649
HEad  -42.2537 -1.50442 -7.15688
LeftShoulder1  0.961334 0.760961 -28.9395
LeftArm  -10.5256 8.82912 -38.1739
LeftForeArm  13.58 -29.3535 -5.59952
LeftHand  -0.0117072 6.80896 2.0818
RightShoulder  0.0805865 -3.22596 25.9976
RightArm  6.82578 -3.56302 43.7394
RightForeArm  -19.7553 12.7987 5.52743
RightHand  -0.65936 5.97451 -7.04774
LeftUpLeg  -2.81802 4.64976 3.00626
LeftLeg  26.0987 -0.229793 0.226473
LeftFoot  -11.0838 0.0664093 0.133427
LeftToes  -2.88401e-009 5.30678e-011 -1.08654e-010
1165
root  -49.4408 39.4773 6.7103 148.934 -89.3225 -160.624
RightUpLeg  -6.94975 -22.6425 -14.2072
RightLeg  21.3415 -0.713358 -0.662194
RightFoot  -3.50797 -0.7639 10.7768
RightToes  7.56698e-010 0 -3.6325e-017
Spine  27.3985 -1.30548 2.36198
Spine1  -0.532466 -0.185404 -4.06458
HEad  -40.0533 -0.565469 -6.94004
LeftShoulder1  1.02394 0.461285 -27.5714
LeftArm  -12.7633 8.22625 -39.13
LeftForeArm  16.5972 -35.2614 -6.9646
LeftHand  -0.0302113 5.23693 3.02165
RightShoulder  0.133721 -3.05473 25.395
RightArm  8.45251 -2.41736 44.8791
RightForeArm  -18.0266 15.5803 5.50492
RightHand  -0.653515 5.8145 -7.07385
LeftUpLeg  -2.64438 4.56761 3.48304
LeftLeg  23.4477 -0.73978 -0.00940319
LeftFoot  -8.74902 0.0468889 0.245971
LeftToes  -2.88401e-009 5.30678e-011 -1.08654e-010
1166
root  -48.8661 39.6296 6.75483 86.759 -89.73 -98.5605
RightUpLeg  -5.68267 -19.9836 -14.7526
RightLeg  28.7289 -1.74832 -1.25572
RightFoot  -4.33569 -0.653874 10.1703
RightToes  7.56698e-010 0 -3.6325e-017
Spine  26.0791 -1.28406 2.07393
Spine1  -0.723839 -0.330041 -4.15184
HEad  -38.2989 -0.842185 -6.59686
LeftShoulder1  1.11744 -0.0157699 -25.5389
LeftArm  -13.4286 7.17479 -40.5147
LeftForeArm  17.7523 -40.0302 -8.2566
LeftHand  -0.0167645 6.3964 2.42079
RightShoulder  0.0415023 -3.3454 25.7316
RightArm  9.2844 -1.85908 44.9625
RightForeArm  -16.3645 19.5548 5.3555
RightHand  -0.736834 6.44463 -7.55069
LeftUpLeg  -2.57787 4.72394 3.48847
LeftLeg  21.3249 -1.50357 -0.300143
LeftFoot  -6.60168 0.016726 0.546059
LeftToes  -2.88401e-009 5.30678e-011 -1.08654e-010
